<svg xmlns="http://www.w3.org/2000/svg" viewBox="0 0 530.7 96"><path d="M100.7 55.4H73.4s-.9 0-.8-.9c.5-11.5 3.2-18.9 15.2-18.9 12.5.1 12.6 7.7 12.9 19.8M88.1 25.6c-21.5 0-26.4 13.8-26.4 34.7 0 21.2 4 34.7 26.2 34.7 10.4 0 16.9-2.2 22.1-5l-4-7.9s-.4-.8-1.2-.4c-3.2 1.5-7.6 3.5-16.3 3.5-12.6 0-15.5-6.9-16-19.6h37.9s.9 0 .9-.9c0-24.3-.1-39.1-23.2-39.1m31.8 67.6s0 .9.9.9h9.6s.9 0 .9-.9V58.7c0-14.9 1.9-22.3 15-22.3 10.9 0 12 5.7 12 16.5v40.3s0 .9.9.9h9.6s.9 0 .9-.9V50.4c0-14.7-2.3-24.7-19.5-24.7-12.2 0-17.5 3.2-20.2 7.8l-1-6.7-8.2.7s-.9.1-.9 1v64.7zm60.8 0s0 .9.9.9h9.6s.9 0 .9-.9V58.7c0-14.9 1.9-22.3 15-22.3 10.9 0 12 5.7 12 16.5v40.3s0 .9.9.9h9.6s.9 0 .9-.9V50.4c0-14.7-2.3-24.7-19.5-24.7-12.2 0-17.5 3.2-20.2 7.8l-1-6.7-8.2.7s-.9.1-.9 1v64.7zm97.9-37.8h-27.2s-.9 0-.8-.9c.5-11.5 3.2-18.9 15.2-18.9 12.4.1 12.5 7.7 12.8 19.8M266 25.6c-21.5 0-26.4 13.8-26.4 34.7 0 21.2 4 34.7 26.2 34.7 10.4 0 16.9-2.2 22.1-5l-4-7.9s-.4-.8-1.2-.4c-3.2 1.5-7.6 3.5-16.3 3.5-12.6 0-15.5-6.9-16-19.6h37.9s.9 0 .9-.9c0-24.3-.1-39.1-23.2-39.1m91.4 67.6s0 .9.9.9h9.6s.9 0 .9-.9V27.7s0-.9-.9-.9h-9.6s-.9 0-.9.9v65.5zm24.9 0s0 .9.9.9h9.6s.9 0 .9-.9V27.7s0-.9-.9-.9h-9.6s-.9 0-.9.9v65.5zM.7 93.2s0 .9.9.9h9.9s.9 0 .9-.9V64.4s0-.9.5-1.6l11.2-14.4s.5-.7.9.1l22.4 44.7s.4.8 1.3.8h11.2s.9 0 .5-.8L32.9 39s-.4-.8.2-1.5L59.3 5s.6-.7-.3-.7H47.2s-.9 0-1.4.7L12.9 46.3s-.5.7-.5-.2V5.2s0-.9-.9-.9H1.6s-.9 0-.9.9v88zm317.8.9l.9-9.1s.1-.9-.8-.9c-6.8 0-7.1-1.7-7.1-7.2V1.8s0-.9-.8-.7L301 3.7s-.8.2-.8 1.1v73.5c0 11.9 3.6 15.9 15.4 15.9 2.2 0 2.3 0 2.9-.1m28.1 0l.9-9.1s.1-.9-.8-.9c-6.8 0-7.1-1.7-7.1-7.2V1.8s0-.9-.8-.7L329 3.8s-.8.2-.8 1.1v73.5c0 11.9 3.6 15.9 15.4 15.9 2.2-.1 2.4-.1 3-.2m10.8-76.4s0 .9.9.9h9.8s.9 0 .9-.9V5.8s0-.9-.9-.9h-9.8s-.9 0-.9.9v11.9zm24.9 0s0 .9.9.9h9.8s.9 0 .9-.9V5.8s0-.9-.9-.9h-9.8s-.9 0-.9.9v11.9zm25.1 18.2v40.3c0 12.6 3.4 18.3 18.4 18.3 1.5 0 6.1-.2 6.9-.3 0 0 .8-.1.9-.9l.9-9.1H427c-7.4 0-8.2-3.2-8.2-9.1V37.7s0-.9.9-.9h13s.9 0 1-.9l.8-8.2s.1-.9-.8-.9h-14s-.9 0-.9-.9V7.8s0-.9-.9-.7l-9.3 1.8s-.9.2-.9 1.1l-.3 25.9zm36.9 0v40.3c0 12.6 3.4 18.3 18.4 18.3 1.5 0 6.1-.2 6.9-.3 0 0 .8-.1.9-.9l.9-9.1h-7.5c-7.4 0-8.2-3.2-8.2-9.1V37.7s0-.9.9-.9h13s.9 0 1-.9l.8-8.2s.1-.9-.8-.9h-14s-.9 0-.9-.9V7.8s0-.9-.9-.7l-9.3 1.8s-.9.2-.9 1.1l-.3 25.9zm74.3 24.8c0 13.9-1.5 24.5-15.5 24.5-13.9 0-15.5-10.5-15.5-24.5 0-13.9 1.6-24.4 15.5-24.4 14 0 15.5 10.4 15.5 24.4m11.4-.4c0-19.6-4-34.7-26.9-34.7-22.8 0-26.9 14.8-26.9 34.7 0 20.1 4.4 34.8 26.9 34.8 22.9 0 26.9-14.6 26.9-34.8" fill="#006eb7"/></svg>